<svg width="583" height="353" viewBox="0 0 583 353" fill="none" xmlns="http://www.w3.org/2000/svg">
<path d="M482.574 72.0277C475.904 55.5777 485.854 54.9076 499.674 60.9476C507.544 64.3876 509.284 80.5577 511.424 87.8377C513.854 96.1077 516.174 104.428 519.124 112.528C523.214 110.228 527.834 108.378 531.684 105.788C542.014 98.8379 546.974 84.8076 543.304 72.9076C556.164 56.8576 569.344 39.4678 582.204 23.4178C566.084 11.2978 543.374 16.7177 523.984 22.2577C504.594 27.7977 481.294 32.1078 466.274 18.6478C464.194 16.7878 462.294 14.5879 459.734 13.4779C451.424 9.88787 443.804 19.0878 436.864 24.8978C423.774 35.8478 402.524 35.3078 390.014 23.6878C386.764 20.6678 383.994 16.9776 380.044 14.9676C374.014 11.8976 366.444 13.548 360.834 17.348C355.234 21.148 351.184 26.7779 347.254 32.2879C330.894 55.2279 291.144 50.988 267.394 35.828C256.144 28.648 247.204 18.3779 236.424 10.4979C225.644 2.62789 211.594 -2.84203 199.004 1.57797C180.294 8.14797 174.944 31.3278 164.504 48.1878C154.024 65.1178 136.934 76.7976 124.344 92.2176C111.004 108.578 106.764 136.488 99.9936 156.328C92.0636 179.568 83.9536 203.168 69.8136 223.238C50.8936 250.098 21.9436 269.518 6.89359 298.728C0.823592 310.518 -2.6864 324.788 2.5536 336.978C11.8136 358.528 45.4236 351.928 63.3936 347.848C91.3936 341.488 116.364 325.418 140.174 310.038C174.784 287.688 214.574 264.848 254.774 273.828C283.694 280.288 309.584 302.878 338.974 299.118C359.774 296.458 376.434 281.078 395.694 272.788C412.954 265.348 432.674 263.738 450.914 268.268C456.044 268.238 458.004 265.578 458.794 261.538C458.014 260.558 457.314 259.518 456.724 258.438C438.574 225.548 451.944 184.988 450.554 147.458C450.434 144.178 450.174 140.828 448.844 137.828C447.254 134.258 444.304 131.508 441.494 128.798C428.064 115.828 416.254 101.178 406.444 85.2977C402.654 79.1677 399.084 72.6176 398.364 65.4476C397.644 58.2776 400.414 50.318 406.724 46.828C415.464 63.528 424.694 80.3378 437.074 94.6678C447.384 106.618 461.554 112.708 468.484 126.878C468.944 127.818 469.374 128.798 469.764 129.808C471.234 133.618 472.234 137.668 472.024 141.748C471.884 144.438 471.224 147.078 470.574 149.688C468.214 159.098 465.944 167.688 464.504 176.218C468.864 172.268 474.054 169.318 479.794 167.948C491.104 165.248 506.054 167.078 511.284 156.698C516.144 147.048 507.354 135.218 508.974 124.888C506.244 119.938 503.604 114.948 501.024 109.948C494.634 97.5476 487.834 84.9279 482.594 71.9979L482.574 72.0277ZM284.344 96.828C280.884 110.748 280.964 125.388 277.174 139.218C271.434 160.128 256.994 177.968 239.414 190.658C221.834 203.358 201.234 211.288 180.304 216.968C158.614 222.848 135.774 226.688 116.854 238.788C81.2336 261.578 66.9536 308.708 31.0936 331.118C29.6136 332.048 27.9436 332.958 26.2236 332.708C24.1936 332.418 22.7336 330.608 21.7236 328.818C16.2836 319.188 17.9136 306.808 23.1036 297.038C28.2936 287.268 36.5536 279.548 44.6836 272.048C66.9936 251.458 90.2636 229.778 100.244 201.108C105.104 187.148 106.514 172.258 110.114 157.918C119.574 120.198 144.854 86.728 178.544 67.308C189.884 60.778 202.294 55.738 215.314 54.368C237.084 52.088 258.554 59.6679 279.874 62.7279C309.084 66.9179 289.414 76.3979 284.344 96.808V96.828Z" fill="#F5F1EB"/>
</svg>
