<svg width="33" height="50" viewBox="0 0 33 50" fill="none" xmlns="http://www.w3.org/2000/svg">
<path d="M32.9172 39.6847C32.4552 30.6683 32.3095 21.7066 32.3095 12.6837C32.1478 10.3627 31.8468 8.01508 30.9464 5.87631C30.046 3.73754 28.4772 1.80763 26.3652 0.919462C24.8488 0.2818 23.1681 0.214781 21.5277 0.156871C16.9107 -0.0064488 12.2727 -0.169118 7.68316 0.372895C5.6504 0.612994 3.46556 1.08343 2.12615 2.65807C1.24749 3.69069 0.862791 5.05646 0.54711 6.38383C-0.464474 10.6412 0.236541 45.3241 0.236541 45.3241C0.550305 46.0822 0.908801 46.8415 1.47818 47.4252C1.93956 47.8976 2.51916 48.2333 3.11282 48.5125C6.11306 49.9218 9.53123 49.9973 12.8363 49.9999C17.6961 50.0038 22.5566 49.9042 27.4126 49.7019C28.1947 49.6693 28.9923 49.631 29.7233 49.346C31.4167 48.6855 32.3919 46.837 32.751 45.0268C33.0987 43.2758 33.0086 41.4689 32.9172 39.6847ZM27.7212 44.4965C27.3806 45.1237 26.6157 45.3684 25.9147 45.4302C25.1383 45.4985 24.3484 45.4113 23.6046 45.1758C22.0089 44.6696 20.674 43.5075 19.0783 42.9999C16.2359 42.0955 13.1986 43.4157 10.6035 44.9025C9.26412 45.6697 7.72597 46.5188 6.27346 46.008C6.04021 45.926 5.8108 45.8037 5.66063 45.6046C5.50151 45.3938 5.44719 45.1205 5.42035 44.8557C5.05035 41.2626 8.55352 39.4863 11.6017 38.8825C10.2412 38.4478 8.91137 37.9162 7.62884 37.3215C6.99173 37.0261 6.34247 36.7001 5.88812 36.1581C5.43377 35.6161 5.22097 34.8014 5.55966 34.1774C5.90026 33.5502 6.66518 33.3055 7.3662 33.2437C8.14262 33.1754 8.93246 33.2626 9.67629 33.4981C11.2719 34.0043 12.6069 35.1665 14.2025 35.674C17.0449 36.5784 20.0823 35.2582 22.6774 33.7714C24.0168 33.0043 25.5549 32.1551 27.0074 32.6659C27.2407 32.7479 27.4701 32.8702 27.6203 33.0693C27.7794 33.2801 27.8337 33.5534 27.8605 33.8183C28.2305 37.4113 24.7274 39.1876 21.6792 39.7915C23.0397 40.2261 24.3695 40.7577 25.652 41.3524C26.2892 41.6478 26.9384 41.9738 27.3928 42.5158C27.8471 43.0578 28.0599 43.8725 27.7212 44.4965ZM15.1496 27.2855C15.0997 25.8943 15.1068 24.5006 15.1624 23.1094C15.209 21.9395 15.4493 17.2937 15.7586 16.1257C15.8302 15.8551 15.9279 15.5649 16.158 15.4139C16.3433 15.2922 16.5772 15.2864 16.797 15.2838C17.1063 15.2812 17.4731 15.3085 17.6341 15.5798C17.7 15.6904 17.7172 15.8238 17.7332 15.9527C17.9933 18.0823 18.1888 20.2406 18.1837 22.3937L18.1089 26.7376C18.0789 28.1021 18.0489 29.4672 18.0188 30.8317C18.0112 31.1941 18.0022 31.5604 17.9044 31.9085C17.854 32.0888 17.7722 32.2716 17.622 32.379C17.4526 32.5 17.2315 32.5019 17.0251 32.5C16.473 32.4941 15.8544 32.4596 15.4787 32.0445C15.2052 31.7426 15.1298 31.304 15.1285 30.8922C15.1266 30.3267 15.1719 27.927 15.1489 27.2848L15.1496 27.2855ZM28.4011 22.898C28.267 24.8422 27.8803 26.9237 26.8994 28.622C25.8188 30.4927 23.6084 31.7211 21.9399 29.7236C20.8798 28.4547 20.5513 26.6068 21.0625 25.0302C21.12 24.8526 21.1884 24.6782 21.2677 24.509C21.7942 23.3821 22.3316 22.2668 22.7566 21.0917C23.0953 20.1554 23.4212 19.2015 23.51 18.2079C23.6679 16.4322 23.0518 14.7151 22.2805 13.1535C21.5948 11.7649 21.0977 10.9288 19.5934 10.4883C17.4181 9.85128 14.492 9.95214 12.4548 11.0316C11.1282 11.7343 10.6687 14.054 10.3811 15.449C10.0297 17.1551 9.96897 18.9223 10.1984 20.6499C10.5198 23.0678 11.7429 25.0146 12.3698 27.2952C12.5967 28.1196 12.3136 29.0475 11.7225 29.6565C9.49033 31.956 7.00706 29.5726 5.92135 27.4423C4.81775 25.2775 4.40366 22.7919 4.0982 20.3968C3.65343 16.9105 3.67644 12.4807 5.11042 9.20581C6.19933 6.71763 8.59122 4.28606 11.4132 4.06157C15.2608 3.75576 23.2742 3.13761 25.6252 6.94992C28.5385 11.6745 28.7711 17.5559 28.4018 22.898H28.4011Z" fill="#848239"/>
</svg>
